<svg width="100" height="100" viewBox="0 0 135 85" fill="none" xmlns="http://www.w3.org/2000/svg">
<path fill-rule="evenodd" clip-rule="evenodd" d="M114.6 61.0432C114.546 60.9856 114.453 60.9856 114.401 61.0432L113.042 62.5115C113.015 62.5396 113 62.5785 113 62.6186V73.8482C113 73.9319 113.064 74 113.141 74H115.859C115.937 74 116 73.9319 116 73.8482V62.6186C116 62.5785 115.985 62.5396 115.958 62.5115L114.6 61.0432Z" fill="#12A9FF"/>
<path fill-rule="evenodd" clip-rule="evenodd" d="M117.599 61.0432C117.546 60.9856 117.453 60.9856 117.4 61.0432L116.041 62.5115C116.015 62.5396 116 62.5785 116 62.6186V73.8482C116 73.9319 116.063 74 116.141 74H118.859C118.938 74 119 73.9319 119 73.8482V62.6186C119 62.5785 118.986 62.5396 118.959 62.5115L117.599 61.0432Z" fill="#04193A"/>
<path fill-rule="evenodd" clip-rule="evenodd" d="M121.599 61.0432C121.547 60.9856 121.453 60.9856 121.401 61.0432L120.042 62.5115C120.015 62.5396 120 62.5785 120 62.6186V73.8482C120 73.9319 120.064 74 120.141 74H122.859C122.936 74 123 73.9319 123 73.8482V62.6186C123 62.5785 122.985 62.5396 122.958 62.5115L121.599 61.0432Z" fill="#12A9FF"/>
<path fill-rule="evenodd" clip-rule="evenodd" d="M125.599 61.0432C125.546 60.9856 125.453 60.9856 125.4 61.0432L124.041 62.5115C124.014 62.5396 124 62.5785 124 62.6186V73.8482C124 73.9319 124.063 74 124.141 74H126.859C126.937 74 127 73.9319 127 73.8482V62.6186C127 62.5785 126.986 62.5396 126.96 62.5115L125.599 61.0432Z" fill="#04193A"/>
<path fill-rule="evenodd" clip-rule="evenodd" d="M130.959 62.5115L129.6 61.0432C129.547 60.9856 129.453 60.9856 129.4 61.0432L128.042 62.5115C128.015 62.5396 128 62.5785 128 62.6186V73.8482C128 73.9319 128.063 74 128.141 74H130.859C130.936 74 131 73.9319 131 73.8482V62.6186C131 62.5785 130.985 62.5396 130.959 62.5115Z" fill="#12A9FF"/>
<path fill-rule="evenodd" clip-rule="evenodd" d="M44.6228 50.3369L39.8251 50.7049V46.8001L44.6228 46.1811V50.3369ZM44.6228 63.6439L39.8251 63.5995V51.7482L44.6228 51.3806V63.6439ZM39.0177 50.7663L35.0275 51.0733V47.4202L39.0177 46.9043V50.7663ZM39.0177 63.5925L35.0275 63.5566V52.117L39.0177 51.81V63.5925ZM23.7996 52.0753L19.3398 52.395V48.9971L23.7996 48.4585V52.0753ZM23.7996 63.4539L19.3398 63.4126V53.3031L23.7996 52.9826V63.4539ZM18.5893 52.4486L14.88 52.7151V49.5361L18.5893 49.0874V52.4486ZM18.5893 63.4056L14.88 63.3717V53.6236L18.5893 53.3568V63.4056ZM58.0648 41.5418L12 48.1515V73H60V39L58.0648 41.5418Z" fill="#FF9076"/>
<path fill-rule="evenodd" clip-rule="evenodd" d="M61 74H111V40.1212L85.1242 9L61 40.0853V74Z" fill="#FFDED1"/>
<path fill-rule="evenodd" clip-rule="evenodd" d="M86 25V35L93 27.9263C91.1709 26.251 88.7193 25.1718 86 25Z" fill="#FF9076"/>
<path fill-rule="evenodd" clip-rule="evenodd" d="M93.3972 28L87 35H96C96 32.3183 95.0133 29.8743 93.3972 28Z" fill="#FF9076"/>
<path fill-rule="evenodd" clip-rule="evenodd" d="M75 35H85L78.0447 28C76.163 29.8194 75 32.2825 75 35Z" fill="#FF9076"/>
<path fill-rule="evenodd" clip-rule="evenodd" d="M86 35V25C83.3099 25.0259 80.8642 26.0182 79 27.6308L86 35Z" fill="#FF9076"/>
<path fill-rule="evenodd" clip-rule="evenodd" d="M80 74H93V48H80V74Z" fill="#FF9076"/>
<path fill-rule="evenodd" clip-rule="evenodd" d="M110.961 42L115 41.9989L85.7402 8L85 8.94241L110.961 39.7718V42Z" fill="#04193A"/>
<path fill-rule="evenodd" clip-rule="evenodd" d="M84.9478 6L58.3105 40.0046L6.03369 47.6563L6 50L59.0487 42.5577L85.6573 8.373L114.581 42.309L116 41.705L84.9478 6Z" fill="#FFFFFE"/>
<path fill-rule="evenodd" clip-rule="evenodd" d="M50.4112 12.8243V17.1621L46.1265 22.2314V5L42.2319 6.77552V14.6747L27.5326 17.9996L6 47L58.3337 39.2851L85 5L50.4112 12.8243Z" fill="#12A9FF"/>
<path fill-rule="evenodd" clip-rule="evenodd" d="M0 74H135V73H0V74Z" fill="#04193A"/>
<g filter="url(#filter0_d)">
<ellipse cx="102" cy="77.5" rx="5" ry="1.5" fill="#F9F9F9"/>
<rect x="101" y="56" width="2" height="21" fill="#966636"/>
<path fill-rule="evenodd" clip-rule="evenodd" d="M122 51H101V60H122L125 55.5L122 51Z" fill="#D19559"/>
</g>
<path d="M105.314 58.042C105.034 58.042 104.782 57.994 104.558 57.898C104.334 57.798 104.158 57.658 104.03 57.478C103.902 57.298 103.838 57.088 103.838 56.848H104.57C104.586 57.028 104.656 57.176 104.78 57.292C104.908 57.408 105.086 57.466 105.314 57.466C105.55 57.466 105.734 57.41 105.866 57.298C105.998 57.182 106.064 57.034 106.064 56.854C106.064 56.714 106.022 56.6 105.938 56.512C105.858 56.424 105.756 56.356 105.632 56.308C105.512 56.26 105.344 56.208 105.128 56.152C104.856 56.08 104.634 56.008 104.462 55.936C104.294 55.86 104.15 55.744 104.03 55.588C103.91 55.432 103.85 55.224 103.85 54.964C103.85 54.724 103.91 54.514 104.03 54.334C104.15 54.154 104.318 54.016 104.534 53.92C104.75 53.824 105 53.776 105.284 53.776C105.688 53.776 106.018 53.878 106.274 54.082C106.534 54.282 106.678 54.558 106.706 54.91H105.95C105.938 54.758 105.866 54.628 105.734 54.52C105.602 54.412 105.428 54.358 105.212 54.358C105.016 54.358 104.856 54.408 104.732 54.508C104.608 54.608 104.546 54.752 104.546 54.94C104.546 55.068 104.584 55.174 104.66 55.258C104.74 55.338 104.84 55.402 104.96 55.45C105.08 55.498 105.244 55.55 105.452 55.606C105.728 55.682 105.952 55.758 106.124 55.834C106.3 55.91 106.448 56.028 106.568 56.188C106.692 56.344 106.754 56.554 106.754 56.818C106.754 57.03 106.696 57.23 106.58 57.418C106.468 57.606 106.302 57.758 106.082 57.874C105.866 57.986 105.61 58.042 105.314 58.042ZM109.463 58.042C109.075 58.042 108.717 57.952 108.389 57.772C108.065 57.588 107.807 57.334 107.615 57.01C107.427 56.682 107.333 56.314 107.333 55.906C107.333 55.498 107.427 55.132 107.615 54.808C107.807 54.484 108.065 54.232 108.389 54.052C108.717 53.868 109.075 53.776 109.463 53.776C109.855 53.776 110.213 53.868 110.537 54.052C110.865 54.232 111.123 54.484 111.311 54.808C111.499 55.132 111.593 55.498 111.593 55.906C111.593 56.314 111.499 56.682 111.311 57.01C111.123 57.334 110.865 57.588 110.537 57.772C110.213 57.952 109.855 58.042 109.463 58.042ZM109.463 57.448C109.739 57.448 109.985 57.386 110.201 57.262C110.417 57.134 110.585 56.954 110.705 56.722C110.829 56.486 110.891 56.214 110.891 55.906C110.891 55.598 110.829 55.328 110.705 55.096C110.585 54.864 110.417 54.686 110.201 54.562C109.985 54.438 109.739 54.376 109.463 54.376C109.187 54.376 108.941 54.438 108.725 54.562C108.509 54.686 108.339 54.864 108.215 55.096C108.095 55.328 108.035 55.598 108.035 55.906C108.035 56.214 108.095 56.486 108.215 56.722C108.339 56.954 108.509 57.134 108.725 57.262C108.941 57.386 109.187 57.448 109.463 57.448ZM112.95 57.448H114.36V58H112.266V53.83H112.95V57.448ZM117.95 55.03C117.842 54.822 117.692 54.666 117.5 54.562C117.308 54.454 117.086 54.4 116.834 54.4C116.558 54.4 116.312 54.462 116.096 54.586C115.88 54.71 115.71 54.886 115.586 55.114C115.466 55.342 115.406 55.606 115.406 55.906C115.406 56.206 115.466 56.472 115.586 56.704C115.71 56.932 115.88 57.108 116.096 57.232C116.312 57.356 116.558 57.418 116.834 57.418C117.206 57.418 117.508 57.314 117.74 57.106C117.972 56.898 118.114 56.616 118.166 56.26H116.6V55.714H118.898V56.248C118.854 56.572 118.738 56.87 118.55 57.142C118.366 57.414 118.124 57.632 117.824 57.796C117.528 57.956 117.198 58.036 116.834 58.036C116.442 58.036 116.084 57.946 115.76 57.766C115.436 57.582 115.178 57.328 114.986 57.004C114.798 56.68 114.704 56.314 114.704 55.906C114.704 55.498 114.798 55.132 114.986 54.808C115.178 54.484 115.436 54.232 115.76 54.052C116.088 53.868 116.446 53.776 116.834 53.776C117.278 53.776 117.672 53.886 118.016 54.106C118.364 54.322 118.616 54.63 118.772 55.03H117.95ZM122.267 53.83V54.388H121.157V58H120.473V54.388H119.357V53.83H122.267Z" fill="white"/>
<defs>
<filter id="filter0_d" x="93" y="49" width="36" height="36" filterUnits="userSpaceOnUse" color-interpolation-filters="sRGB">
<feFlood flood-opacity="0" result="BackgroundImageFix"/>
<feColorMatrix in="SourceAlpha" type="matrix" values="0 0 0 0 0 0 0 0 0 0 0 0 0 0 0 0 0 0 127 0"/>
<feOffset dy="2"/>
<feGaussianBlur stdDeviation="2"/>
<feColorMatrix type="matrix" values="0 0 0 0 0 0 0 0 0 0 0 0 0 0 0 0 0 0 0.132157 0"/>
<feBlend mode="normal" in2="BackgroundImageFix" result="effect1_dropShadow"/>
<feBlend mode="normal" in="SourceGraphic" in2="effect1_dropShadow" result="shape"/>
</filter>
</defs>
</svg>
