<svg width="49" height="49" viewBox="0 0 49 49" fill="none" xmlns="http://www.w3.org/2000/svg">
<circle cx="24.5" cy="24.5" r="24.5" fill="#F5FAFD"/>
<path d="M27.1562 23.4062C26.4271 24.1354 25.5417 24.5 24.5 24.5C23.4583 24.5 22.5729 24.1354 21.8438 23.4062C21.1146 22.6771 20.75 21.7917 20.75 20.75C20.75 19.7083 21.1146 18.8229 21.8438 18.0938C22.5729 17.3646 23.4583 17 24.5 17C25.5417 17 26.4271 17.3646 27.1562 18.0938C27.8854 18.8229 28.25 19.7083 28.25 20.75C28.25 21.7917 27.8854 22.6771 27.1562 23.4062ZM19.5781 27.4297C21.2969 26.7266 22.9375 26.375 24.5 26.375C26.0625 26.375 27.7031 26.7266 29.4219 27.4297C31.1406 28.1068 32 29.0052 32 30.125V32H17V30.125C17 29.0052 17.8594 28.1068 19.5781 27.4297Z" fill="#C2DEEE"/>
</svg>
