<svg width="100" height="100" viewBox="0 0 127 94" fill="none" xmlns="http://www.w3.org/2000/svg">
<circle cx="33.5" cy="35.5" r="32" fill="#D19559" stroke="#C38240" stroke-width="3"/>
<path d="M30.1144 49L22.5944 39.56V49H16.9944V19.4H22.5944V36.24L30.0344 26.84H37.3144L27.5544 37.96L37.3944 49H30.1144ZM45.9538 30.28C46.6738 29.1067 47.6071 28.1867 48.7538 27.52C49.9271 26.8533 51.2604 26.52 52.7538 26.52V32.4H51.2738C49.5138 32.4 48.1804 32.8133 47.2738 33.64C46.3938 34.4667 45.9538 35.9067 45.9538 37.96V49H40.3538V26.84H45.9538V30.28Z" fill="white"/>
<path fill-rule="evenodd" clip-rule="evenodd" d="M124 94H77V55.3194L101.699 30L124 55.3194V94Z" fill="#FFDED1"/>
<path fill-rule="evenodd" clip-rule="evenodd" d="M45 94H77V57H45V94Z" fill="#FF9076"/>
<path fill-rule="evenodd" clip-rule="evenodd" d="M107 54.0001C107 55.6568 105.657 57 104 57C102.343 57 101 55.6568 101 54.0001C101 52.3432 102.343 51 104 51C105.657 51 107 52.3432 107 54.0001Z" fill="#FF9076"/>
<path fill-rule="evenodd" clip-rule="evenodd" d="M96 94H113V70H96V94Z" fill="#F2C7B6"/>
<path fill-rule="evenodd" clip-rule="evenodd" d="M99 94H110V72H99V94Z" fill="white"/>
<path fill-rule="evenodd" clip-rule="evenodd" d="M123.657 59.9937L101.518 36.2768L77 64V57.9355L101.518 30L125 55.161L123.657 59.9937Z" fill="#DCDDE2"/>
<path fill-rule="evenodd" clip-rule="evenodd" d="M102 27H68.3275L43 56H78.0586L102 27Z" fill="#12A9FF"/>
<path fill-rule="evenodd" clip-rule="evenodd" d="M104.522 29.659L102.048 27L77.4032 54.5411H42V59.7621H77.4032L102.094 32.3538L124.3 57.0031V60H127V54.7791L104.522 29.659Z" fill="#088DD8"/>
<path fill-rule="evenodd" clip-rule="evenodd" d="M76 27H83V20H76V27Z" fill="#1A3C71"/>
<path fill-rule="evenodd" clip-rule="evenodd" d="M82 27H85V20H82V27Z" fill="black"/>
<path fill-rule="evenodd" clip-rule="evenodd" d="M26 94H50V74.0554L37.3881 61L26 74.0554V94Z" fill="#FF9076"/>
<path fill-rule="evenodd" clip-rule="evenodd" d="M50 94H67V75H50V94Z" fill="#FFDED1"/>
<path fill-rule="evenodd" clip-rule="evenodd" d="M37 59H54.1218L67 74H49.1736L37 59Z" fill="#12A9FF"/>
<path fill-rule="evenodd" clip-rule="evenodd" d="M50.09 73.1877L37.623 59L36.3713 60.3698L25 73.3102V76H26.3658V74.4561L37.5993 61.7582L50.09 75.8772H68V73.1877H50.09Z" fill="#088DD8"/>
<path fill-rule="evenodd" clip-rule="evenodd" d="M84 79H90V69H84V79Z" fill="white"/>
<path fill-rule="evenodd" clip-rule="evenodd" d="M88 79H90V69H88V79Z" fill="#F2C7B6"/>
<path fill-rule="evenodd" clip-rule="evenodd" d="M84 79H90V77H84V79Z" fill="#F2C7B6"/>
<path fill-rule="evenodd" clip-rule="evenodd" d="M33 84H39V74H33V84Z" fill="#FDFBF6"/>
<path fill-rule="evenodd" clip-rule="evenodd" d="M33 84H35V74H33V84Z" fill="#E8785E"/>
<path fill-rule="evenodd" clip-rule="evenodd" d="M33 84H39V82H33V84Z" fill="#E8785E"/>
<path fill-rule="evenodd" clip-rule="evenodd" d="M115 79H121V69H115V79Z" fill="white"/>
<path fill-rule="evenodd" clip-rule="evenodd" d="M119 79H121V69H119V79Z" fill="#F2C7B6"/>
<path fill-rule="evenodd" clip-rule="evenodd" d="M115 79H121V77H115V79Z" fill="#F2C7B6"/>
</svg>
