<svg width="100" height="100" viewBox="0 0 65 65" fill="none" xmlns="http://www.w3.org/2000/svg">
<path d="M65 32.5C65 43.0791 59.9459 52.4776 52.1193 58.4111C46.6673 62.5473 39.8715 65 32.5 65C24.9972 65 18.0885 62.4584 12.5888 58.1882C4.92934 52.2427 0 42.9465 0 32.5C0 14.5507 14.5507 0 32.5 0C50.4493 0 65 14.5507 65 32.5Z" fill="#FFDED1"/>
<path d="M44 12H20L24.4365 41.9678L44 44V12Z" fill="#323B5B"/>
<rect x="28" y="31" width="10" height="7" fill="#FECD9C"/>
<path d="M30.6366 31.0001L28.0001 31V31.0001H28V33.5133C28 33.5133 28.0001 33.5133 28.0001 33.5134V36H30.6366C30.6366 35.1581 31.3951 34.4812 32.3049 34.5207C32.4806 34.5284 32.6575 34.5322 32.8354 34.5322C34.6992 34.5322 36.4562 34.1086 38 33.3605V31.0001H30.6366Z" fill="#EAB689"/>
<path d="M43 12.2078L23 11V23.6557C23 29.9209 27.4771 35 32.9999 35C38.5227 35 42.9997 29.9209 42.9997 23.6557V12.2078H43Z" fill="#FECD9C"/>
<path d="M24.7298 23.6436V11.2025L22.0515 11.0425V23.6436C22.0515 29.8818 26.5566 34.939 32.1137 34.939C32.5678 34.939 33.0147 34.9047 33.4527 34.8393C28.5288 34.1042 24.7298 29.3722 24.7298 23.6436Z" fill="#EAB689"/>
<path d="M26.2938 15.4248C26.2938 15.4248 32.5563 17.4562 38.5045 16.7074C44.4528 15.9586 37.4541 11.9215 37.4541 11.9215L27.3356 11.2343L25.9021 11.9215" fill="#EAB689"/>
<path d="M33.52 30H32.4802C32.2151 30 32 30.2238 32 30.5C32 30.7761 32.2148 31 32.4802 31H33.52C33.785 31 34 30.7762 34 30.5C34 30.2238 33.785 30 33.52 30Z" fill="#EAB689"/>
<path d="M49 43.0366V48.909C46.6789 50.5688 44.0732 51.8758 41.2687 52.7487C38.9498 53.4713 36.4942 53.8991 33.9492 53.9839C33.6347 53.9946 33.3179 54 33 54C32.6821 54 32.3654 53.9946 32.0498 53.9839C29.5048 53.8991 27.0502 53.4714 24.7303 52.7487C21.9257 51.8748 19.3212 50.5689 17 48.909V43.0366C17 42.0395 17.5762 41.1281 18.49 40.6777L25.9498 37L32.0498 37.89L32.5201 37.9585L33.9493 38.1891L33.9769 38.1935V39.1703L40.0494 37.0001L47.5081 40.6778C48.4228 41.1281 49 42.0394 49 43.0366Z" fill="#EDEDED"/>
<path d="M29 37.2834L27.3104 36.9369L20.258 40.8602C19.3929 41.3405 18.8482 42.3128 18.8482 43.3766V51C18.2136 50.5756 17.5969 50.1227 17 49.6411V43.3766C17 42.3129 17.5448 41.3406 18.4089 40.8602L25.4623 36.9369L28.1014 36L29 37.2834Z" fill="#C2C2C2"/>
<path d="M34 38V53.984C33.6689 53.9947 33.3352 54 33.0005 54C32.6658 54 32.3323 53.9947 32 53.984V38H34Z" fill="#F7F7F7"/>
<path d="M33.9999 38H32.0319V38.1785L32 38.1633V41L32.7142 39.5654C32.7822 39.4291 32.8144 39.2817 32.8144 39.1367C32.8144 39.2815 32.8465 39.4285 32.9145 39.5654L33.6287 41V39.1367H34V38H33.9999V38Z" fill="#EDEDED"/>
<path d="M27.0739 34.106L31.9243 36.2227C32.4243 36.4409 32.6291 37.0513 32.3651 37.5355L30.7944 40.4144C30.4896 40.973 29.7365 41.0623 29.3138 40.5901L25.3164 36.1262C24.9478 35.7146 25.0125 35.0683 25.4549 34.7407L26.1728 34.2092C26.434 34.0155 26.7765 33.9762 27.0739 34.106Z" fill="#F7F7F7"/>
<path d="M37.8878 34.106L33.0374 36.2227C32.5374 36.4409 32.3325 37.0513 32.5965 37.5355L34.1673 40.4144C34.472 40.973 35.2251 41.0623 35.6479 40.5901L39.6453 36.1262C40.0139 35.7146 39.9491 35.0683 39.5068 34.7407L38.7889 34.2092C38.5276 34.0155 38.1851 33.9762 37.8878 34.106Z" fill="#F7F7F7"/>
<ellipse cx="32.5319" cy="39.72" rx="0.443818" ry="0.658247" fill="#474F70"/>
<ellipse cx="32.5319" cy="45.0059" rx="0.443818" ry="0.658247" fill="#474F70"/>
<ellipse cx="32.5319" cy="50.292" rx="0.443818" ry="0.658247" fill="#474F70"/>
<path d="M23.4923 27.0756L27.9791 29.3068L27.5686 29.9268L23.0818 27.6956L23.4923 27.0756Z" fill="#55CEED"/>
<ellipse cx="27.4986" cy="30.101" rx="1.1503" ry="1.1436" fill="#474F70"/>
<path d="M45.9371 13.4545V39.925L41.6401 37.7449C41.6401 37.7449 41.6401 28.8413 41.6401 26.0734C41.6401 23.3055 42.5307 15.7931 36.5538 15.7931C34.7181 15.7931 33.1129 15.3946 31.7335 14.8158L31.7325 14.8148C30.1072 14.1341 28.7925 13.2033 27.7739 12.3778C27.7728 12.3768 27.7706 12.3755 27.7693 12.3745C27.7683 12.3768 27.767 12.3833 27.7647 12.3944V12.3955C27.7014 12.7353 20.7113 25.5953 24.6076 38.544C17.8015 37.1417 13.0781 31.1798 13.0781 24.4786C13.0781 23.7094 13.1404 22.9303 13.2683 22.1467C15.1398 10.7341 20.1293 0.00012207 32.3991 0.00012207H32.4024C39.8779 0.00012207 45.9371 6.02397 45.9371 13.4545Z" fill="#474F70"/>
<path d="M17.2571 22.2824C18.9969 11.4454 23.4729 1.21925 34.1281 0.102822C33.5894 0.0355371 33.0409 0.000244141 32.4842 0.000244141H32.4809C20.3969 0.000244141 15.4827 10.7994 13.6392 22.2824C12.4112 29.932 17.3344 37.2065 24.8071 38.7792C24.6587 38.2757 24.5284 37.7724 24.4111 37.2697C19.2821 34.3849 16.2661 28.4562 17.2571 22.2824Z" fill="#323B5B"/>
<path d="M31.8237 14.905C30.2231 14.2202 28.9284 13.2837 27.9251 12.4531L29.7396 8.49475C29.7089 8.58375 28.5697 11.9966 31.8237 14.905Z" fill="#323B5B"/>
<path d="M51.9425 42.5192V58.4111C46.5744 62.5472 39.8831 64.9999 32.625 64.9999C25.2376 64.9999 18.4352 62.4583 13.0201 58.1881V42.5192C13.0201 41.255 14.0297 40.2296 15.2745 40.2296H49.6882C50.9329 40.2296 51.9425 41.255 51.9425 42.5192Z" fill="#323B5B"/>
<path d="M52 44.2983V58.3862C46.6212 62.538 39.9166 65 32.644 65C25.2419 65 18.4259 62.4488 13 58.1624V44.2983C13 43.0293 14.0116 42 15.2589 42H49.7413C50.9884 42 52 43.0293 52 44.2983Z" fill="#474F70"/>
<path d="M62.6166 24H47.3832C46.0669 24 45 25.0559 45 26.3581V32.5326C45 33.8349 46.0672 34.8907 47.3832 34.8907H49.6438V39L55.053 34.8907H62.6166C63.933 34.8907 65 33.8348 65 32.5326V26.3581C65.0001 25.0557 63.9331 24 62.6166 24Z" fill="#12A9FF"/>
<path d="M51 29.5C51 30.2941 50.3112 31 49.5112 31C48.6445 31 48 30.2941 48 29.5C48 28.6839 48.6445 28 49.5112 28C50.3112 28 51 28.6839 51 29.5Z" fill="white"/>
<path d="M56 29.5C56 30.2941 55.3112 31 54.511 31C53.6445 31 53 30.2941 53 29.5C53 28.6839 53.6445 28 54.511 28C55.311 28 56 28.6839 56 29.5Z" fill="white"/>
<path d="M61 29.5C61 30.2941 60.3112 31 59.5112 31C58.6445 31 58 30.2941 58 29.5C58 28.6839 58.6445 28 59.5112 28C60.3112 28 61 28.6839 61 29.5Z" fill="white"/>
<ellipse cx="33.0204" cy="55.0784" rx="2.91114" ry="2.88687" fill="#323B5B"/>
</svg>
