<svg width="100" height="100" viewBox="0 0 109 84" fill="none" xmlns="http://www.w3.org/2000/svg">
<path d="M108.046 39.738L72.9023 20.2335C72.3412 19.9222 71.6588 19.9222 71.0977 20.2335L35.9538 39.738C35.365 40.0648 35 40.684 35 41.3563V43.1483C35 44.171 35.8309 45 36.8561 45H107.144C108.169 45 109 44.171 109 43.1483V41.3563C109 40.6842 108.635 40.0648 108.046 39.738Z" fill="#12A9FF"/>
<path d="M64 24.8168C64 24.5437 63.9944 24.2716 63.9862 24L35.9489 39.7135C35.3631 40.0418 35 40.6639 35 41.3393V43.1397C35 44.1672 35.8267 45 36.8466 45H54.4871C60.2899 40.2137 64 32.9439 64 24.8168Z" fill="#009BF3"/>
<path d="M104 44.8122V82.1312C104 83.1634 103.17 84 102.146 84H40.8542C39.8301 84 39 83.1634 39 82.1312V44.8122L70.2345 27.237C70.7907 26.9241 71.4672 26.9208 72.0264 27.2283L104 44.8122Z" fill="#FFDED1"/>
<path d="M76 29.4728L71.9304 27.2283C71.3728 26.9208 70.6983 26.9241 70.1437 27.237L39 44.8122V82.1312C39 83.1634 39.8277 84 40.8488 84H46.3233C45.3022 84 44.4746 83.1634 44.4746 82.1312V49.7831C50.4467 48.0414 55.5391 44.1824 58.9014 39.0655L76 29.4728Z" fill="#FFCFC3"/>
<path d="M48 52.8779V84H96V52.8779C96 51.8407 95.1676 51 94.1406 51H49.8594C48.8324 51 48 51.8407 48 52.8779H48Z" fill="white"/>
<path d="M54 51H48.8992C47.8503 51 47 51.8407 47 52.8779V84H52.1008V52.8779C52.1008 51.8407 52.951 51 54 51Z" fill="#FFCFC3"/>
<path d="M67 70H76V84H67V70Z" fill="#FF9076"/>
<path d="M77.0462 43H67.9538C66.8747 43 66 42.1879 66 41.186V38.814C66 37.8121 66.8747 37 67.9538 37H77.0462C78.1253 37 79 37.8121 79 38.814V41.186C79 42.1877 78.1251 43 77.0462 43Z" fill="#FF9076"/>
<path d="M23.5 14C22.6716 14 22 13.3109 22 12.4608V6.53925C22 5.68914 22.6716 5 23.5 5C24.3284 5 25 5.68914 25 6.53925V12.4606C25.0002 13.3107 24.3286 14 23.5 14Z" fill="#12A9FF"/>
<path d="M12.8622 24L5.6115 16.7492C4.79617 15.9339 4.79617 14.6119 5.6115 13.7965L7.79667 11.6115C8.612 10.7962 9.93401 10.7962 10.7493 11.6115L18 18.8623L12.8622 24Z" fill="#12A9FF"/>
<path d="M63.6405 15.91L57.1042 10.2514C56.4379 9.67462 55.4105 10.1541 55.4105 11.0415V13.1076H23.6473C10.5871 13.1074 0 23.8286 0 37.0538C0 50.279 10.5871 61 23.6471 61C36.7072 61 47.2943 50.279 47.2943 37.0538C47.2943 30.5276 44.715 24.6123 40.5337 20.2929H55.4103V22.3589C55.4103 23.2465 56.4377 23.7259 57.104 23.1491L63.6403 17.4905C64.1199 17.0753 64.1199 16.325 63.6405 15.91Z" fill="#FF9076"/>
<path d="M7.30564 37.0001C7.30564 24.9692 16.2863 15.0063 28 13.269C26.8084 13.0922 25.5887 13 24.3473 13C10.9005 13 0 23.7453 0 37.0001C0 50.2549 10.9005 61 24.3471 61C25.5887 61 26.8082 60.9078 27.9998 60.731C16.2863 58.9939 7.30564 49.031 7.30564 37.0001Z" fill="#F37152"/>
<path d="M24.5 21C15.3872 21 8 28.3872 8 37.5C8 46.6128 15.3872 54 24.5 54C33.6128 54 41 46.6128 41 37.5C41.0002 28.3874 33.6128 21 24.5 21Z" fill="#FFF1ED"/>
<path d="M24.3855 39H19.6145C18.7228 39 18 38.2294 18 37.2788C18 36.3282 18.7228 35.5576 19.6145 35.5576H22.7711V31.7212C22.7711 30.7706 23.4939 30 24.3855 30C25.2772 30 26 30.7706 26 31.7212V37.2788C26.0002 38.2294 25.2774 39 24.3855 39Z" fill="#12A9FF"/>
<path d="M27.9699 8H20.0301C18.9088 8 18 6.97085 18 5.70115V2.29885C18 1.02915 18.9088 0 20.0301 0H27.9699C29.0912 0 30 1.02915 30 2.29885V5.70115C30 6.97085 29.091 8 27.9699 8Z" fill="#008CDB"/>
<circle cx="23.5" cy="24.5" r="1.5" fill="#FF9076"/>
<circle cx="23.5" cy="48.5" r="1.5" fill="#FF9076"/>
<path d="M30.4393 29.5607C31.0251 30.1464 31.9749 30.1464 32.5607 29.5607C33.1464 28.9749 33.1464 28.0251 32.5607 27.4393C31.9749 26.8536 31.0251 26.8536 30.4393 27.4393C29.8536 28.0253 29.8536 28.9751 30.4393 29.5607Z" fill="#FF9076"/>
<path d="M15.5607 43.4393C14.9749 42.8536 14.0251 42.8536 13.4393 43.4393C12.8536 44.0251 12.8536 44.9749 13.4393 45.5607C14.0251 46.1464 14.9749 46.1464 15.5607 45.5607C16.1464 44.9749 16.1464 44.0251 15.5607 43.4393Z" fill="#FF9076"/>
<circle cx="34.5" cy="36.5" r="1.5" fill="#FF9076"/>
<circle cx="11.5" cy="36.5" r="1.5" fill="#FF9076"/>
<path d="M30.4393 45.5607C31.0251 46.1464 31.9749 46.1464 32.5607 45.5607C33.1464 44.9749 33.1464 44.0251 32.5607 43.4393C31.9749 42.8536 31.0251 42.8536 30.4393 43.4393C29.8536 44.0251 29.8536 44.9749 30.4393 45.5607Z" fill="#FF9076"/>
<path d="M15.5607 27.4393C14.9749 26.8536 14.0251 26.8536 13.4393 27.4393C12.8536 28.0251 12.8536 28.9749 13.4393 29.5607C14.0251 30.1464 14.9749 30.1464 15.5607 29.5607C16.1464 28.9749 16.1464 28.0251 15.5607 27.4393Z" fill="#FF9076"/>
</svg>
